<?xml version="1.0" encoding="UTF-8" standalone="no"?>
<!-- Created with Inkscape (http://www.inkscape.org/) -->

<svg
   width="210mm"
   height="297mm"
   viewBox="0 0 210 297"
   version="1.1"
   id="svg5"
   inkscape:version="1.1.2 (b8e25be833, 2022-02-05)"
   sodipodi:docname="desenho.svg"
   xmlns:inkscape="http://www.inkscape.org/namespaces/inkscape"
   xmlns:sodipodi="http://sodipodi.sourceforge.net/DTD/sodipodi-0.dtd"
   xmlns="http://www.w3.org/2000/svg"
   xmlns:svg="http://www.w3.org/2000/svg">
  <sodipodi:namedview
     id="namedview7"
     pagecolor="#ffffff"
     bordercolor="#666666"
     borderopacity="1.0"
     inkscape:pageshadow="2"
     inkscape:pageopacity="0.0"
     inkscape:pagecheckerboard="0"
     inkscape:document-units="mm"
     showgrid="false"
     inkscape:zoom="0.57994529"
     inkscape:cx="397.45129"
     inkscape:cy="422.45364"
     inkscape:window-width="1600"
     inkscape:window-height="837"
     inkscape:window-x="-8"
     inkscape:window-y="-8"
     inkscape:window-maximized="1"
     inkscape:current-layer="layer1" />
  <defs
     id="defs2" />
  <g
     inkscape:label="Camada 1"
     inkscape:groupmode="layer"
     id="layer1">
    <rect
       style="fill:#800000;fill-rule:evenodd;stroke-width:0.279544"
       id="rect31"
       width="181.11983"
       height="67.520737"
       x="16.423964"
       y="16.42396"
       ry="33.760368" />
    <rect
       style="fill:#241c1c;stroke-width:0.333569"
       id="rect176"
       width="140.51613"
       height="57.483868"
       x="37.410141"
       y="22.81106"
       ry="22.069702"
       rx="70.258064" />
    <path
       sodipodi:type="spiral"
       style="fill:#ffffff;fill-rule:evenodd;stroke:#000000"
       id="path299"
       sodipodi:cx="-381.07043"
       sodipodi:cy="401.76202"
       sodipodi:expansion="1"
       sodipodi:revolution="3"
       sodipodi:radius="349.28473"
       sodipodi:argument="-18.293049"
       sodipodi:t0="0"
       d="m -381.07043,401.76202 c 14.87002,9.25056 -5.13323,24.6084 -15.37504,24.71496 -27.75468,0.28879 -39.87192,-32.52468 -34.05489,-55.46503 10.40532,-41.0349 58.58239,-56.78214 95.55503,-43.39481 54.25884,19.64645 74.08703,84.95509 52.73474,135.64502 -28.45924,67.56172 -111.43456,91.55367 -175.73502,62.07467 -80.91557,-37.09632 -109.10268,-137.96368 -71.41459,-215.82502 45.64533,-94.3005 164.52053,-126.69916 255.91501,-80.75451 107.70523,54.14417 144.3254,191.09462 90.09444,296.005 -62.61179,121.12319 -217.68023,161.97149 -336.095,99.43437 -134.55039,-71.05866 -179.63148,-244.27393 -108.77429,-376.185 79.49106,-147.98428 270.87354,-197.301567 416.27499,-118.11421 161.423172,87.91297 214.9792268,297.47761 127.454144,456.36499"
       transform="matrix(0.08865914,0,0,0.08432139,137.65271,18.843875)" />
    <path
       sodipodi:type="star"
       style="fill:#ff0000"
       id="path472"
       inkscape:flatsided="false"
       sodipodi:sides="5"
       sodipodi:cx="-627.64545"
       sodipodi:cy="193.12167"
       sodipodi:r1="464.46463"
       sodipodi:r2="175.12872"
       sodipodi:arg1="0.60859701"
       sodipodi:arg2="1.2242477"
       inkscape:rounded="3.0915601"
       inkscape:randomized="0"
       d="M -246.57501,458.66397 C -831.33361,1321.024 416.23258,16.409644 -568.16234,357.8391 -1562.9997,702.89044 249.03661,930.32553 -762.43394,637.59828 -1763.2874,347.9437 -137.00627,1131.3017 -765.91973,300.59396 -1401.5047,-538.92592 -1057.8583,1254.7044 -1092.0198,202.28103 -1125.8226,-839.09536 -1368.2918,949.66082 -772.58677,94.825774 -170.56249,-769.07739 -1770.2137,112.01201 -779.85606,-245.69414 200.10608,-599.64557 -1576.0292,-277.4914 -578.94982,24.899185 428.70664,330.49754 -903.57857,-918.58956 -257.34247,-87.240771 382.11029,735.38161 -473.13252,-854.27235 -452.60858,187.45036 c 20.74167,1052.77334 796.99532,-600.29435 206.03357,271.21361 z"
       transform="matrix(0.13309389,-0.03344755,0.03049739,0.12135468,183.59879,125.40726)"
       inkscape:transform-center-x="8.9659915"
       inkscape:transform-center-y="-0.93209874" />
    <path
       sodipodi:type="star"
       style="fill:#ff0000"
       id="path927"
       inkscape:flatsided="false"
       sodipodi:sides="190"
       sodipodi:cx="-632.8183"
       sodipodi:cy="84.49073"
       sodipodi:r1="130.43283"
       sodipodi:r2="49.180347"
       sodipodi:arg1="0.42225115"
       sodipodi:arg2="0.43878585"
       inkscape:rounded="23.924885"
       inkscape:randomized="0"
       d="M -513.84155,137.94405 C -1310.6097,1911.3957 237.68445,-1654.6509 -588.2969,105.38454 -1414.2782,1865.42 339.29482,-1604.2895 -515.67395,141.8486 -1370.6427,1887.9867 294.71039,-1624.9183 -589.01206,106.84514 -1472.7345,1838.6086 394.60009,-1571.2249 -517.63444,145.69042 -1429.869,1862.6057 350.72209,-1593.3165 -589.77512,108.2813 -1530.2723,1809.8791 448.78189,-1536.3497 -519.72089,149.46533 -1488.2237,1835.2804 405.65831,-1559.88 -590.58525,109.69145 -1586.8288,1779.2629 501.78098,-1499.7022 -521.931,153.16919 -1545.643,1806.0406 459.45896,-1524.6454 -591.44156,111.07404 -1642.3421,1746.7935 553.5394,-1461.3224 -524.26237,156.79795 -1602.0641,1774.9183 512.06523,-1487.6513 -592.34312,112.42756 -1696.7515,1712.5064 604.00056,-1421.2522 -526.71244,160.34764 -1657.4254,1741.9475 563.41958,-1448.938 -593.28893,113.75053 -1749.9975,1676.4391 653.10927,-1379.5356 -529.27854,163.81438 -1711.6663,1707.1643 613.46587,-1408.5479 -594.27797,115.04151 -1802.0218,1638.631 700.81184,-1336.218 -531.95785,167.19438 -1764.7276,1670.6068 662.14936,-1366.5253 -595.30916,116.29908 -1852.7677,1599.1234 747.05611,-1291.347 -534.74746,170.48395 -1816.551,1632.3149 709.41683,-1322.916 -596.38136,117.52186 -1902.1795,1557.9597 791.7915,-1244.9714 -537.64431,173.67949 -1867.0801,1592.3304 755.21658,-1277.7677 -597.4934,118.70853 -1950.2034,1515.1847 834.96911,-1197.1422 -540.64522,176.7775 -1916.2596,1550.6972 799.49853,-1231.1297 -598.64407,119.85778 -1996.7867,1470.8453 876.54171,-1147.9114 -543.74693,179.77459 -1964.0356,1507.4606 842.21427,-1183.0532 -599.83211,120.96836 -2041.8785,1424.9899 916.46384,-1097.3331 -546.94603,182.6675 -2010.3559,1462.6681 883.31708,-1133.5906 -601.05621,122.03905 -2085.4295,1377.6688 954.69186,-1045.4625 -550.23904,185.45305 -2055.1699,1416.3686 922.76202,-1082.7961 -602.31505,123.06869 -2127.3921,1328.9335 991.18396,-992.35624 -553.62234,188.12819 -2098.4286,1368.6126 960.50595,-1030.7252 -603.60725,124.05613 -2167.7204,1278.8375 1025.9002,-938.07249 -557.09225,190.69002 -2140.0847,1319.4525 996.50761,-977.43479 -604.93138,125.00032 -2206.3704,1227.4354 1058.8027,-882.67059 -560.64495,193.13571 -2180.0926,1268.942 1030.7276,-922.98318 -606.28602,125.9002 -2243.2997,1174.7836 1089.8555,-826.21111 -564.27658,195.4626 -2218.4086,1217.1363 1063.1286,-867.42992 -607.66966,126.75481 -2278.4679,1120.9395 1119.0245,-768.75579 -567.98316,197.66815 -2254.9908,1164.0921 1093.675,-810.83575 -609.0808,127.5632 c -1702.7558,938.399 1755.3587,-837.93066 37.32016,72.18674 -1718.03846,910.11736 1694.09424,-953.01249 -38.75726,-71.42545 -1732.8515,881.58701 1782.1038,-779.43445 34.91302,73.3812 -1747.19072,852.81571 1724.67778,-896.47897 -36.3745,-72.66784 -1761.05232,823.81114 1806.90008,-720.08595 32.4677,74.49543 C -2353.9441,998.11465 1173.8638,-635.43189 -613.46366,129.7025 -2400.7911,894.8369 1216.257,-530.24754 -583.47677,205.23069 -2383.2106,940.70892 1196.6791,-575.30328 -614.96909,130.31771 -2426.6172,835.93871 1235.5714,-468.77478 -587.49582,206.79607 -2410.563,882.36692 1217.4938,-514.4532 -616.49405,130.88281 -2450.4819,776.21883 1252.8427,-406.69703 -591.56443,208.22772 -2435.9715,823.15246 1236.2853,-452.94818 -618.03685,131.39718 -2472.359,715.74255 1268.052,-344.08217 -595.67814,209.52405 -2459.4083,763.13028 1253.0329,-390.85548 -619.59582,131.86026 -2492.2245,654.576 1281.1828,-280.99867 -599.83247,210.68367 -2480.8478,702.36602 1267.7184,-328.24299 -621.16924,132.27154 -2510.0568,592.78608 1292.2207,-217.51552 -604.02287,211.7053 -2500.2664,640.92612 1280.3256,-265.17919 -622.75541,132.63058 -2525.8364,530.44034 1301.1535,-153.70212 -608.24476,212.58782 -2517.643,578.87776 1290.8409,-201.73302 -624.35257,132.93697 -2539.546,467.60696 1307.9716,-89.628269 -612.49351,213.33027 -2532.9586,516.2888 1299.2527,-137.97388 -625.959,133.19039 c -1925.2117,271.16426 1938.6264,-158.554408 9.1945,80.74144 -1929.4319,239.29585 1922.3163,-287.9033 -10.80842,-80.54128 -1933.12468,207.36202 1942.80882,-94.370193 6.51989,81.0013 -1936.28897,175.3715 1930.78433,-224.1876373 -8.13955,-80.8546 -1938.92382,143.33303 1944.86678,-30.0828 3.83815,81.17258 -1941.02867,111.25538 1937.14103,-160.226834 -5.46178,-81.07952 -1942.60279,79.14731 1944.79811,34.2375 1.15221,81.2551 -1943.6459,47.01761 1941.3796,-96.09082 -2.77802,-81.21577 -1944.15758,14.87504 1942.60282,98.52036 -1.53499,81.24877 -1944.13779,-17.27158 1943.49521,-31.84973 -0.0912,-81.26322 -1943.58645,-49.413487 1938.28325,162.69549 -4.2205,81.1536 -1942.50375,-81.54189 1943.48565,32.42618 2.59564,-81.22181 C -2576.5831,19.938994 1296.1512,360.2797 -642.59452,214.55667 -2581.3402,68.833645 1298.7565,311.22331 -637.31482,133.46509 -2573.3861,-44.293127 1285.978,423.90714 -646.88959,214.16232 -2579.7572,4.4175064 1290.2038,374.96371 -638.93162,133.28964 -2568.0671,-108.38443 1273.7067,487.16344 -651.16928,213.62618 -2576.0452,-59.911073 1279.5484,438.38649 -640.54174,133.06083 -2560.6319,-172.26482 1259.3506,549.97942 -655.4289,212.94883 -2570.2084,-124.08175 1266.8019,501.42229 -642.14341,132.77892 -2551.0887,-235.86445 1242.9254,612.28639 -659.66379,212.13102 -2562.253,-188.02436 1251.9781,564.00217 -643.73488,132.4442 -2539.4479,-299.11378 1224.4492,674.01623 -663.86933,211.17363 -2552.1878,-251.66898 1235.0933,626.05773 -645.31441,132.05704 -2525.7222,-361.94365 1203.942,735.10143 -668.04092,210.07771 -2540.0239,-314.94601 1216.166,687.52108 -646.88028,131.61787 -2509.9266,-424.28534 1181.4264,795.4752 -672.17399,208.84447 -2525.7744,-377.78626 1195.2169,748.32503 -648.43078,131.12717 -2492.0785,-486.0707 1156.9269,855.07152 -676.26403,207.47525 -2509.455,-440.12102 1172.2689,808.40309 -649.9642,130.58547 -2472.1972,-547.23215 1130.4704,913.82522 -680.30656,205.97155 -2491.0835,-501.88212 1147.347,867.68956 -651.47887,129.99336 -2450.3047,-607.70283 1102.0857,971.67205 -684.29716,204.33501 -2470.6801,-563.00204 1120.4785,926.11961 -652.97314,129.3515 -2426.4247,-667.4166 1071.804,1028.5488 -688.23147,202.56742 -2448.2669,-623.41393 1091.6928,983.62935 -654.44537,128.66059 -2400.5835,-726.30817 1039.6583,1084.3932 -692.10518,200.67071 -2423.8686,-683.05173 1061.0214,1040.1559 -655.89395,127.92138 -2372.8093,-784.31315 1005.6837,1139.1442 -695.91407,198.64697 -2397.5118,-741.85024 1028.4978,1095.6374 -657.31729,127.13467 -2343.1323,-841.3681 969.91747,1192.742 -699.65396,196.4984 -2369.2254,-799.74516 994.15753,1150.0133 -658.71385,126.30134 -2311.5852,-897.41064 932.39867,1245.1279 -703.32077,194.22735 -2339.0402,-856.67318 958.03822,1203.2241 -660.08209,125.42228 -2278.2024,-952.37948 893.16832,1296.2446 -706.91049,191.8363 -2306.9893,-912.57205 920.17934,1255.2115 -661.42052,124.49847 -2243.0204,-1006.2145 852.26933,1346.0364 -710.41918,189.32787 -2273.1077,-967.38065 880.62228,1305.9187 -662.72767,123.53091 -2206.0776,-1058.8569 809.74642,1394.4487 -713.84303,186.7048 -2237.4325,-1021.039 839.41029,1355.2904 -664.00212,122.52066 -2167.4145,-1110.249 765.64609,1441.4285 -717.17827,183.96997 -2200.0026,-1073.4886 796.58844,1403.2724 -665.24247,121.46883 -2127.0734,-1160.3347 720.01655,1486.9245 -720.42126,181.12636 -2160.8591,-1124.6718 752.20356,1449.8124 -666.44736,120.37656 -2085.0983,-1209.0592 672.90772,1530.887 -723.56847,178.17707 -2120.0446,-1174.5329 706.30418,1494.8594 -667.61548,119.24505 -2041.5351,-1256.3693 624.37108,1573.2679 -726.61643,175.12534 -2077.604,-1223.0173 658.94048,1538.3642 -668.74555,118.07553 -1996.4316,-1302.2131 574.45973,1614.0209 -729.56184,171.97451 -2033.5834,-1270.0719 610.16427,1580.2792 -669.83634,116.86929 -1949.8369,-1346.5406 523.22824,1653.1013 -732.40145,168.72801 -1988.0311,-1315.6453 560.02887,1620.5585 -670.88664,115.62765 -1901.8022,-1389.3032 470.73263,1690.4665 -735.13217,165.3894 -1940.997,-1359.6877 508.58911,1659.1583 -671.89532,114.35196 -1852.3798,-1430.4543 417.03031,1726.0755 -737.75102,161.96232 -1892.5323,-1402.1509 455.90124,1696.0361 -672.86127,113.04361 -1801.6238,-1469.9489 362.17998,1759.8895 -740.25512,158.45054 -1842.6902,-1442.9885 402.02287,1731.1517 -673.78343,111.70405 -1749.5897,-1507.7436 306.24165,1791.8715 -742.64174,154.85788 -1791.5251,-1482.1558 347.01292,1764.4668 -674.6608,110.33472 -1696.3345,-1543.7973 249.27646,1821.9865 -744.90827,151.18827 -1739.093,-1519.61 290.93154,1795.9448 -675.49241,108.93714 -1641.9164,-1578.0705 191.34672,1850.2016 -747.05223,147.44573 -1685.4512,-1555.3101 233.84005,1825.5513 -676.27736,107.51282 -1586.3948,-1610.5257 132.51576,1876.4858 -749.07128,143.63436 -1630.6583,-1589.2171 175.80088,1853.2541 -677.01478,106.06333 -1529.8304,-1641.1274 72.847924,1900.8106 -750.9632,139.7583 -1574.7743,-1621.294 116.8775,1879.0227 -677.70388,104.59026 -1472.2853,-1669.8422 12.408451,1923.1493 -752.72594,135.82182 -1517.8603,-1651.5056 57.134333,1902.829 -678.3439,103.0952 c -735.4782,-1799.7338 629.607333,1840.3822 -76.01366,28.734 -705.62104,-1811.6481 750.9942765,1792.8178 75.42342,-30.2494 -675.57086,-1823.0672 568.41387,1860.1929 -76.92214,26.20502 -645.33602,-1833.98782 691.30708,1816.66798 76.38234,-27.73911 -614.92476,-1844.40711 506.59884,1877.96949 -77.74652,23.64739 -584.34534,-1854.3221 630.86395,1838.5317 77.25772,-25.19849 -553.60626,-1863.73021 444.22987,1893.69259 -78.48586,21.0639 -522.7157,-1872.62871 569.73097,1858.38499 78.04863,-22.63031 -491.68233,-1881.0153 381.37512,1907.345 -79.13941,18.45738 C -1220.0539,-1773.502 -251.56436,1991.5917 -680.78518,95.348189 -1110.006,-1800.8953 -362.68182,2014.2599 -760.49158,111.17886 -1158.3013,-1791.9022 -314.828,2003.1546 -681.11794,93.756306 -1047.4079,-1815.6419 -426.63419,2022.1364 -761.30418,106.94296 -1095.9742,-1808.2505 -378.43935,2012.6194 -681.39789,92.154291 -984.35643,-1828.3108 -490.81201,2027.8942 -761.97627,102.68251 -1033.1405,-1822.5292 -442.32886,2019.9758 -681.62471,90.543896 -920.92056,-1838.888 -555.14512,2031.5268 -762.50714,98.402166 -969.86916,-1834.7225 -506.42666,2025.2158 -681.79816,88.926882 -857.16966,-1847.3621 -619.56316,2033.0304 -762.89619,94.10661 -906.22922,-1844.8172 -570.66268,2028.3337 -681.91806,87.305018 -793.17344,-1853.7236 -683.9957,2032.4034 -763.14301,89.800539 -842.29031,-1852.8023 -634.96666,2029.326 -681.98426,85.680075 -729.00187,-1857.9658 -748.37227,2029.6463 -763.24731,85.488662 -778.12235,-1858.6689 -699.26829,2028.1916 -681.99671,84.053833 -664.72512,-1860.0839 -812.62249,2024.7622 -763.209,81.175694 -713.7955,-1862.4108 -763.49726,2024.9318 -681.95537,82.428068 -600.41349,-1860.0757 -876.67609,2017.7564 -763.0281,76.866351 -649.38011,-1864.0237 -827.58333,2019.5502 -681.86031,80.804558 -536.13729,-1857.9411 -940.46304,2008.6366 -762.70482,72.565345 -584.9466,-1863.5059 -891.45643,2012.0527 -681.71162,79.18508 -471.9668,-1853.6825 -1003.9136,1997.4128 -762.23951,68.277379 -520.56544,-1860.8581 -955.04671,2002.4473 -681.50946,77.571403 -407.97221,-1847.3045 -1066.9583,1984.0973 -761.63268,64.007142 -456.30703,-1856.083 -1018.2846,1990.7448 -681.25406,75.965292 -344.22348,-1838.8142 -1129.5284,1968.7046 -760.885,59.759304 -392.24163,-1849.186 -1081.1011,1976.9577 -680.9457,74.368503 -280.79033,-1828.2207 -1191.5553,1951.2515 -759.99728,55.538509 -328.43929,-1840.1745 -1143.4273,1961.1013 -680.58471,72.782783 -217.74211,-1815.5357 -1252.9712,1931.7571 -758.97048,51.349373 -264.96979,-1829.0584 -1205.1952,1943.1928 -680.17149,71.209866 -155.14778,-1800.7731 -1313.709,1910.2428 -757.80575,47.196476 -201.90253,-1815.8499 -1266.3372,1923.2519 -679.70649,69.651471 -93.075768,-1783.9489 -1373.7022,1886.732 -756.50434,43.08436 -139.30647,-1800.5633 -1326.7865,1901.3003 -679.19022,68.109302 -31.593958,-1765.0817 -1432.8853,1861.2506 -755.06768,39.017522 -77.250054,-1783.2155 -1386.4769,1877.362 -678.62324,66.585047 29.230422,-1744.1919 -1491.1935,1833.8262 -753.49734,35.000408 -15.801145,-1763.8254 -1445.3432,1851.4633 -678.00618,65.080371 89.330861,-1721.3025 -1548.5632,1804.489 -751.79504,31.03741 44.973064,-1742.4142 -1503.321,1823.6324 -677.3397,63.59692 148.64164,-1696.4385 -1604.9314,1773.271 -749.96265,27.132864 105.00612,-1719.0053 -1560.347,1793.8998 -676.62454,62.136316 207.09791,-1669.6271 -1660.2367,1740.2063 -748.00216,23.291037 164.23237,-1693.6243 -1616.3587,1762.2979 -675.86148,60.700156 264.63573,-1640.8976 -1714.4185,1705.3312 -745.91571,19.516131 222.58707,-1666.2989 -1671.2949,1728.8614 -675.05135,59.290011 321.19221,-1610.2814 -1767.4176,1668.6837 -743.7056,15.812274 280.00638,-1637.0591 -1725.0956,1693.6269 -674.19503,57.907422 376.70549,-1577.812 -1819.176,1630.3038 -741.37423,12.183515 336.42754,-1605.9368 -1777.7018,1656.6327 -673.29348,56.553902 431.11487,-1543.5249 -1869.6372,1590.2337 -738.92416,8.633824 391.78884,-1572.966 -1829.0562,1617.9195 -672.34766,55.23093 484.36085,-1507.4576 -1918.7459,1548.517 -736.35806,5.167081 446.02975,-1538.1829 -1879.1025,1577.5294 -671.35862,53.939954 536.38522,-1469.6495 -1966.4484,1505.1995 -733.67874,1.7870773 499.09096,-1501.6253 -1927.786,1535.5067 -670.32744,52.682384 587.13108,-1430.142 -2012.6927,1460.3284 -730.88914,-1.5024912 550.91443,-1463.3334 -1975.0534,1491.8974 -669.25524,51.459597 636.54294,-1388.9782 -2057.4281,1413.9529 -727.99229,-4.6980274 601.44352,-1423.3489 -2020.8532,1446.7491 -668.1432,50.272928 684.56678,-1346.2033 -2100.6057,1366.1236 -724.99137,-7.7960369 650.62295,-1381.7157 -2065.1351,1400.1112 -666.99253,49.123676 731.15007,-1301.8638 -2142.1783,1316.8929 -721.88967,-10.793132 698.39897,-1338.4792 -2107.8509,1352.0347 -665.80449,48.013098 776.24188,-1256.0085 -2182.1004,1266.3146 -718.69056,-13.686036 744.71931,-1293.6866 -2148.9537,1302.5721 -664.58038,46.942407 819.79291,-1208.6873 -2220.3285,1214.4439 -715.39756,-16.471585 789.53334,-1247.3871 -2188.3986,1251.7776 -663.32154,45.912775 861.75553,-1159.952 -2256.8206,1161.3377 -712.01425,-19.146733 832.79205,-1199.6312 -2226.1425,1199.7067 -662.02935,44.925327 902.08385,-1109.856 -2291.5368,1107.054 -708.54435,-21.708555 874.44813,-1150.4711 -2262.1442,1146.4162 -660.70521,43.981143 940.73378,-1058.454 -2324.4393,1051.652 -704.99164,-24.15425 914.45605,-1099.9606 -2296.3642,1091.9646 -659.35058,43.081256 977.66306,-1005.8021 -2355.4921,995.19257 -701.36001,-26.481143 952.77203,-1048.1549 -2328.7652,1036.4114 -657.96694,42.22665 1012.8313,-951.95808 -2384.6611,937.73725 -697.65343,-28.68669 989.3542,-995.11063 -2359.3116,979.81721 -656.5558,41.418259 1046.2,-896.98069 -2411.9145,879.34892 -693.87596,-30.768479 1024.1626,-940.88588 -2387.9702,922.24401 -655.1187,40.656967 1077.7328,-840.93007 -2437.2225,820.09142 -690.03172,-32.724234 1057.159,-885.53989 -2414.7095,863.75474 -653.65721,39.943606 1107.3951,-783.86753 -2460.5573,760.02956 -686.12492,-34.551816 1088.3075,-829.13319 -2439.5004,804.41335 -652.17294,39.278957 1135.1545,-725.85544 -2481.8936,699.229 -682.15982,-36.249227 1117.574,-771.72746 -2462.3157,744.28474 -650.6675,38.663747 1160.9806,-666.95725 -2501.208,637.75624 -678.14078,-37.81461 1144.9264,-713.38546 -2483.1304,683.43466 -649.14255,38.098648 1184.8453,-607.23736 -2518.4793,575.67849 -674.07217,-39.246255 1170.3349,-654.171 -2501.9219,621.92964 -647.59975,37.584277 1206.7224,-546.76108 -2533.6886,513.06363 -669.95845,-40.542594 1193.7717,-594.14882 -2518.6695,559.83694 -646.04078,37.121199 1226.5879,-485.59454 -2546.8194,449.98013 -665.80412,-41.702212 1215.2112,-533.38455 -2533.355,497.22445 -644.46735,36.709918 1244.4202,-423.80462 -2557.8572,386.49698 -661.61373,-42.723839 1234.6298,-471.94466 -2545.9622,434.16065 -642.88119,36.350884 1260.1998,-361.45888 -2566.7901,322.68358 -657.39184,-43.60636 1252.0064,-409.8963 -2556.4775,370.71448 -641.28402,36.044491 1273.9094,-298.6255 -2573.6082,258.60973 -653.14308,-44.348808 1267.322,-347.30734 -2564.8893,306.95534 -639.6776,35.791074 1285.5341,-235.37319 -2578.304,194.34548 -648.8721,-44.950371 1280.5598,-284.24622 -2571.1883,242.95293 -638.06367,35.590908 1295.061,-171.77111 -2580.8725,129.9611 -644.58356,-45.410393 1291.7054,-220.78189 -2575.3679,178.77725 -636.44401,35.444214 1302.4798,-107.88882 -2581.3108,65.527008 -640.28216,-45.72837 1300.7465,-156.98375 -2577.4232,114.49846 -634.82039,35.351151 1307.7824,-43.796161 -2579.6185,1.1136482 -635.9726,-45.903954 c 1943.6459,-47.017603 -1941.3796,96.090821 2.77803,81.215776 1944.15757,-14.875045 -1942.60283,-98.520362 1.53498,-81.248776 1944.13779,17.271586 -1943.49521,31.849735 0.0912,81.263224 1943.58645,49.413488 -1938.28325,-162.69549 4.22051,-81.153602 C 1315.1559,35.714556 -2570.8335,-78.253511 -629.94349,35.394477 1310.9466,149.04247 -2561.7878,-191.29824 -623.04208,-45.57521 1315.7036,100.14782 -2564.3931,-142.24185 -628.32177,35.516371 1307.7495,213.27459 -2551.6146,-254.92568 -618.74701,-45.180863 1314.1206,164.56395 -2555.8404,-205.98225 -626.70497,35.691818 1302.4305,277.36589 -2539.3433,-318.18198 -614.46732,-44.644722 1310.4086,228.89253 -2545.185,-269.40503 -625.09486,35.920626 1294.9953,341.24628 -2524.9872,-380.99796 -610.2077,-43.967373 1304.5718,293.06321 -2532.4385,-332.44083 -623.49319,36.202544 1285.4521,404.84591 -2508.562,-443.30493 -605.9728,-43.149557 1296.6164,357.00582 -2517.6147,-395.02071 -621.90172,36.537265 1273.8113,468.09524 -2490.0858,-505.03477 -601.76726,-42.192168 1286.5512,420.65044 -2500.7299,-457.07626 -620.32218,36.924422 1260.0856,530.92511 -2469.5786,-566.11997 -597.59568,-41.096253 1274.3873,483.92747 -2481.8026,-518.53962 -618.75631,37.363592 1244.29,593.2668 -2447.063,-626.49374 -593.46261,-39.863011 1260.1378,546.76772 -2460.8535,-579.34357 -617.20582,37.854295 1226.4419,655.05216 -2422.5635,-686.09006 -589.37257,-38.493789 1243.8184,609.10248 -2437.9054,-639.42163 -615.6724,38.395994 1206.5606,716.21361 -2396.107,-744.84376 -585.33004,-36.990086 1225.4469,670.86358 -2412.9835,-698.7081 -614.15773,38.988097 1184.6681,776.68429 -2367.7223,-802.69059 -581.33944,-35.353546 1205.0435,731.9835 -2386.1151,-757.13815 -612.66346,39.629957 1160.7881,836.39806 -2337.4406,-859.5673 -577.40513,-33.585957 1182.6303,792.39539 -2357.3294,-814.64789 -611.19123,40.320871 1134.9469,895.28963 -2305.2949,-915.4117 -573.53141,-31.689254 1158.232,852.03319 -2326.658,-871.17444 -609.74265,41.060084 1107.1727,953.29461 -2271.3203,-970.16272 -569.72253,-29.665509 1131.8753,910.8317 -2294.1344,-926.65598 -608.3193,41.846788 1077.4957,1010.3496 -2235.5541,-1023.7605 -565.98263,-27.516936 1103.5888,968.72662 -2259.7941,-981.03185 -606.92274,42.680123 1045.9486,1066.3921 -2198.0353,-1076.1464 -562.31583,-25.245885 1073.4036,1025.6546 -2223.6748,-1034.2426 -605.5545,43.559177 1012.5658,1121.3609 -2158.8049,-1127.2632 -558.72611,-22.854838 1041.3527,1081.5535 -2185.8159,-1086.23 -604.21607,44.482989 977.38379,1175.196 -2117.9059,-1177.0549 -555.21741,-20.34641 1007.4711,1136.3621 -2146.2589,-1136.9373 -602.90892,45.450549 940.44103,1227.8384 -2075.383,-1225.4672 -551.79357,-17.723344 971.79588,1190.0205 -2105.0469,-1186.3089 -601.63447,46.460798 901.77794,1279.2305 -2031.2827,-1272.447 -548.45833,-14.988509 934.36603,1242.47 -2062.225,-1234.2909 -600.39413,47.512633 861.43679,1329.3162 -1985.6532,-1317.9431 -545.21533,-12.144894 895.22248,1293.6533 -2017.8402,-1280.8309 -599.18923,48.604903 819.46169,1378.0407 -1938.5443,-1361.9056 -542.06813,-9.1956105 854.40805,1343.5144 -1971.9408,-1325.8779 -598.02111,49.736414 775.89855,1425.3507 -1890.0077,-1404.2865 -539.02016,-6.1438818 811.96736,1391.9987 -1924.5771,-1369.3827 -596.89104,50.905928 730.79499,1471.1946 -1840.0963,-1445.0394 -536.07476,-2.9930456 767.94681,1439.0533 -1875.8009,-1411.2977 -595.80026,52.112166 684.20034,1515.522 -1788.8648,-1484.1198 -533.23514,0.25345286 722.39455,1484.6267 -1825.6655,-1451.5771 -594.74996,53.35381 636.16556,1558.2847 -1736.3692,-1521.485 -530.50442,3.5920636 675.36038,1528.6691 -1774.2257,-1490.1768 -593.74128,54.629501 586.74316,1599.4358 -1682.6669,-1557.0941 -527.88558,7.0191358 626.89574,1571.1323 -1721.5378,-1527.0546 -592.77533,55.937846 535.98718,1638.9303 -1627.8166,-1590.9081 -525.38148,10.530922 577.05362,1611.9699 -1667.6595,-1562.1703 -591.85317,57.277412 483.95313,1676.7251 -1571.8782,-1622.8901 -522.99486,14.123582 525.88852,1651.1372 -1612.6495,-1595.4853 -590.9758,58.646736 430.69792,1712.7788 -1514.9131,-1653.005 -520.72833,17.793188 473.4564,1688.5914 -1556.5681,-1626.9633 -590.14419,60.04432 376.27976,1747.052 -1456.9833,-1681.2201 -518.58437,21.535726 419.81458,1724.2916 -1499.4766,-1656.5699 -589.35924,61.468636 320.75816,1779.5071 -1398.1524,-1707.5044 -516.56532,25.347105 365.02172,1758.1986 -1441.4375,-1684.2726 -588.62181,62.918126 264.19385,1810.1089 -1338.4845,-1731.8292 -514.67339,29.223157 309.13774,1790.2755 -1382.5141,-1710.0412 -587.93271,64.391205 206.64866,1838.8236 -1278.045,-1754.1678 -512.91066,33.159642 252.22374,1820.4871 -1322.7709,-1733.8475 -587.2927,65.886263 148.18554,1865.6201 -1216.9,-1774.4959 -511.27904,37.152258 194.34196,1848.8004 -1262.2733,-1755.6655 -586.70246,67.401665 88.86839,1890.4689 -1155.1163,-1792.7912 -509.78032,41.196637 135.55569,1875.1845 -1201.0874,-1775.4714 -586.16265,68.935753 28.762091,1913.3429 -1092.7615,-1809.0338 -508.41614,45.288358 75.92922,1899.6105 -1139.2801,-1793.2433 -585.67386,70.48685 -32.067636,1934.217 -1029.9037,-1823.2058 -507.18799,49.422947 15.527743,1922.0517 -1076.919,-1808.962 -585.23662,72.053261 -93.554276,1953.0685 -966.61175,-1835.2917 -506.09722,53.595881 -45.582691,1942.4835 -1014.0722,-1822.6103 -584.85141,73.633271 -155.63059,1969.8768 -902.95477,-1845.2784 -505.14502,57.802598 -107.33526,1960.8836 -950.8086,-1834.1731 -584.51865,75.225155 -218.22871,1984.6234 -839.00241,-1853.155 -504.33242,62.038499 -169.66243,1977.232 -887.19725,-1843.6379 -584.23871,76.827169 -281.28017,1997.2923 -774.82458,-1858.9127 -503.66032,66.29895 -232.49606,1991.5106 -823.30774,-1850.9943 -584.01189,78.437564 -344.71603,2007.8695 -710.49148,-1862.5454 -503.12946,70.579294 -295.76744,2003.704 -759.20993,-1856.2344 -583.83843,80.054578 -408.46693,2016.3435 -646.07344,-1864.049 -502.74041,74.87485 c 143.33303,1938.92385 -192.23351,-1934.22705 -80.97813,6.801593 111.25538,1941.028657 2.07764,-1945.098343 81.22495,-2.495522 79.14731,1942.602779 -128.17635,-1939.525421 -81.15874,4.120464 47.0176,1943.645915 66.388,-1943.966185 81.26304,0.191413 14.87505,1944.157602 -63.97902,-1942.702998 -81.2506,1.43483 -17.27158,1944.137772 130.62578,-1940.708328 81.21229,2.878138 -49.41349,1943.586434 0.28826,-1943.756166 -81.25362,-1.252373 C -665.22311,2029.0572 -388.96051,-1848.7749 -502.6085,92.11511 -616.25649,2033.0051 -438.05327,-1850.5688 -583.77629,88.176902 -729.49931,2026.9226 -325.17356,-1839.6552 -502.93178,96.416116 -680.69,2032.4874 -374.18017,-1843.0712 -583.92498,89.796381 -793.66979,2022.664 -261.72301,-1828.4314 -503.39708,100.70408 -745.07116,2029.8395 -310.58988,-1833.4659 -584.12713,91.410058 -857.66439,2016.286 -198.67826,-1815.1158 -504.00391,104.97432 -809.32957,2025.0645 -247.35195,-1821.7633 -584.38253,93.016169 -921.41311,2007.7956 -136.10822,-1799.7231 -504.7516,109.22216 -873.39497,2018.1674 -184.53552,-1807.9762 -584.69089,94.612957 -984.84627,1997.2022 -74.081339,-1782.27 -505.63932,113.44295 -937.1973,2009.1559 -122.20928,-1792.1198 -585.05188,96.198677 -1047.8945,1984.5172 -12.665424,-1762.7757 -506.66611,117.63209 -1000.6668,1998.0398 -60.441385,-1774.2113 -585.4651,97.771595 -1110.4888,1969.7545 48.072363,-1741.2613 -507.83085,121.78498 -1063.7341,1984.8313 0.70062505,-1754.2704 -585.9301,99.32999 -1172.5608,1952.9304 108.06561,-1717.7506 -509.13226,125.8971 -1126.3301,1969.5448 61.149892,-1732.3188 -586.44637,100.87216 -1234.0426,1934.0631 167.2487,-1692.2691 -510.56892,129.96394 -1188.3865,1952.197 120.84031,-1708.3805 -587.01335,102.39641 -1294.867,1913.1734 225.55694,-1664.8448 -512.13926,133.98105 -1249.8355,1932.8069 179.70662,-1682.4818 -587.63042,103.90109 -1354.9675,1890.284 282.92656,-1635.5076 -513.84155,137.94405 Z"
       transform="matrix(0.16500817,0,0,0.14913891,5.1920841,99.857669)" />
  </g>
</svg>
